ffmpeg version 6.1.1-3ubuntu5 Copyright (c) 2000-2023 the FFmpeg developers
  built with gcc 13 (Ubuntu 13.2.0-23ubuntu3)
  configuration: --prefix=/usr --extra-version=3ubuntu5 --toolchain=hardened --libdir=/usr/lib/x86_64-linux-gnu --incdir=/usr/include/x86_64-linux-gnu --arch=amd64 --enable-gpl --disable-stripping --disable-omx --enable-gnutls --enable-libaom --enable-libass --enable-libbs2b --enable-libcaca --enable-libcdio --enable-libcodec2 --enable-libdav1d --enable-libflite --enable-libfontconfig --enable-libfreetype --enable-libfribidi --enable-libglslang --enable-libgme --enable-libgsm --enable-libharfbuzz --enable-libmp3lame --enable-libmysofa --enable-libopenjpeg --enable-libopenmpt --enable-libopus --enable-librubberband --enable-libshine --enable-libsnappy --enable-libsoxr --enable-libspeex --enable-libtheora --enable-libtwolame --enable-libvidstab --enable-libvorbis --enable-libvpx --enable-libwebp --enable-libx265 --enable-libxml2 --enable-libxvid --enable-libzimg --enable-openal --enable-opencl --enable-opengl --disable-sndio --enable-libvpl --disable-libmfx --enable-libdc1394 --enable-libdrm --enable-libiec61883 --enable-chromaprint --enable-frei0r --enable-ladspa --enable-libbluray --enable-libjack --enable-libpulse --enable-librabbitmq --enable-librist --enable-libsrt --enable-libssh --enable-libsvtav1 --enable-libx264 --enable-libzmq --enable-libzvbi --enable-lv2 --enable-sdl2 --enable-libplacebo --enable-librav1e --enable-pocketsphinx --enable-librsvg --enable-libjxl --enable-shared
  libavutil      58. 29.100 / 58. 29.100
  libavcodec     60. 31.102 / 60. 31.102
  libavformat    60. 16.100 / 60. 16.100
  libavdevice    60.  3.100 / 60.  3.100
  libavfilter     9. 12.100 /  9. 12.100
  libswscale      7.  5.100 /  7.  5.100
  libswresample   4. 12.100 /  4. 12.100
  libpostproc    57.  3.100 / 57.  3.100
Input #0, mov,mp4,m4a,3gp,3g2,mj2, from 'Descargas/03_La_Física_de_CSS_Clean_001.mov_temp.mp4':
  Metadata:
    major_brand     : qt  
    minor_version   : 512
    compatible_brands: qt  
    encoder         : Lavf59.27.100
  Duration: 00:06:52.75, start: 0.000000, bitrate: 72355 kb/s
  Stream #0:0[0x1]: Video: png (png  / 0x20676E70), rgb24(pc, gbr/unknown/unknown), 1280x720, 72354 kb/s, 24 fps, 24 tbr, 12288 tbn (default)
    Metadata:
      handler_name    : VideoHandler
      vendor_id       : FFMP
Input #1, mov,mp4,m4a,3gp,3g2,mj2, from '/home/ian/Vídeos/NaiWeb/Programacion/Css/03_La_Física_de_CSS.mp4':
  Metadata:
    major_brand     : mp42
    minor_version   : 0
    compatible_brands: isommp42
    encoder         : Google
  Duration: 00:06:53.22, start: 0.000000, bitrate: 623 kb/s
  Stream #1:0[0x1](und): Video: h264 (High) (avc1 / 0x31637661), yuv420p(tv, bt709, progressive), 1280x720 [SAR 1:1 DAR 16:9], 525 kb/s, 24 fps, 24 tbr, 12288 tbn (default)
    Metadata:
      handler_name    : ISO Media file produced by Google Inc.
      vendor_id       : [0][0][0][0]
  Stream #1:1[0x2](und): Audio: aac (LC) (mp4a / 0x6134706D), 44100 Hz, mono, fltp, 95 kb/s (default)
    Metadata:
      handler_name    : ISO Media file produced by Google Inc.
      vendor_id       : [0][0][0][0]
[out#0/mov @ 0x63d26e5fbb00] Codec AVOption preset (Encoding preset) has not been used for any stream. The most likely reason is either wrong type (e.g. a video option with no video streams) or that it is a private option of some encoder which was not actually used for any stream.
Stream mapping:
  Stream #0:0 -> #0:0 (png (native) -> prores (prores_ks))
  Stream #1:1 -> #0:1 (aac (native) -> pcm_s16le (native))
Press [q] to stop, [?] for help
Output #0, mov, to 'Descargas/03_La_Física_de_CSS_Clean_001.mov':
  Metadata:
    major_brand     : qt  
    minor_version   : 512
    compatible_brands: qt  
    encoder         : Lavf60.16.100
  Stream #0:0: Video: prores (HQ) (apch / 0x68637061), yuv444p10le(tv, progressive), 1280x720, q=2-31, 200 kb/s, 24 fps, 12288 tbn (default)
    Metadata:
      handler_name    : VideoHandler
      vendor_id       : FFMP
      encoder         : Lavc60.31.102 prores_ks
  Stream #0:1(und): Audio: pcm_s16le (sowt / 0x74776F73), 44100 Hz, mono, s16, 705 kb/s (default)
    Metadata:
      handler_name    : ISO Media file produced by Google Inc.
      vendor_id       : [0][0][0][0]
      encoder         : Lavc60.31.102 pcm_s16le
frame=    0 fps=0.0 q=0.0 size=       0kB time=00:00:00.00 bitrate=N/A speed=   0x    frame=   33 fps=0.0 q=-0.0 size=    8192kB time=00:00:01.90 bitrate=35245.7kbits/s speed=3.59x    frame=   74 fps= 72 q=-0.0 size=   19712kB time=00:00:03.62 bitrate=44579.5kbits/s speed=3.52x    frame=  117 fps= 75 q=-0.0 size=   30976kB time=00:00:05.41 bitrate=46902.8kbits/s speed=3.47x    frame=  158 fps= 76 q=-0.0 size=   41984kB time=00:00:07.12 bitrate=48247.5kbits/s speed=3.43x    frame=  190 fps= 72 q=-0.0 size=   50432kB time=00:00:08.45 bitrate=48880.3kbits/s speed=3.22x    frame=  228 fps= 73 q=-0.0 size=   61696kB time=00:00:10.03 bitrate=50385.1kbits/s speed= 3.2x    frame=  259 fps= 71 q=-0.0 size=   71936kB time=00:00:11.33 bitrate=52006.2kbits/s speed=3.11x    frame=  292 fps= 70 q=-0.0 size=   82688kB time=00:00:12.70 bitrate=53331.5kbits/s speed=3.06x    frame=  318 fps= 68 q=-0.0 size=   91392kB time=00:00:13.79 bitrate=54281.3kbits/s speed=2.96x    frame=  348 fps= 67 q=-0.0 size=  101376kB time=00:00:15.00 bitrate=55364.5kbits/s speed=2.89x    frame=  383 fps= 67 q=-0.0 size=  112896kB time=00:00:16.46 bitrate=56177.3kbits/s speed=2.87x    frame=  416 fps= 66 q=-0.0 size=  123648kB time=00:00:17.87 bitrate=56653.3kbits/s speed=2.85x    frame=  446 fps= 66 q=-0.0 size=  133632kB time=00:00:19.08 bitrate=57354.5kbits/s speed=2.81x    frame=  476 fps= 65 q=-0.0 size=  143616kB time=00:00:20.36 bitrate=57773.9kbits/s speed=2.78x    frame=  508 fps= 65 q=-0.0 size=  154112kB time=00:00:21.71 bitrate=58150.5kbits/s speed=2.77x    frame=  535 fps= 64 q=-0.0 size=  163072kB time=00:00:22.82 bitrate=58526.8kbits/s speed=2.74x    frame=  568 fps= 64 q=-0.0 size=  174592kB time=00:00:24.19 bitrate=59113.3kbits/s speed=2.73x    frame=  597 fps= 63 q=-0.0 size=  183808kB time=00:00:25.37 bitrate=59329.8kbits/s speed= 2.7x    frame=  627 fps= 62 q=-0.0 size=  194048kB time=00:00:26.65 bitrate=59634.3kbits/s speed=2.66x    frame=  652 fps= 62 q=-0.0 size=  203520kB time=00:00:27.74 bitrate=60085.2kbits/s speed=2.63x    frame=  676 fps= 61 q=-0.0 size=  212480kB time=00:00:28.69 bitrate=60649.6kbits/s speed= 2.6x    frame=  694 fps= 60 q=-0.0 size=  219392kB time=00:00:29.41 bitrate=61090.4kbits/s speed=2.53x    frame=  720 fps= 59 q=-0.0 size=  229888kB time=00:00:30.58 bitrate=61582.8kbits/s speed=2.49x    frame=  739 fps= 58 q=-0.0 size=  236800kB time=00:00:31.32 bitrate=61929.6kbits/s speed=2.45x    frame=  764 fps= 57 q=-0.0 size=  246528kB time=00:00:32.36 bitrate=62392.5kbits/s speed=2.43x    frame=  783 fps= 56 q=-0.0 size=  253952kB time=00:00:33.15 bitrate=62741.1kbits/s speed=2.39x    frame=  800 fps= 56 q=-0.0 size=  260608kB time=00:00:33.87 bitrate=63017.5kbits/s speed=2.35x    frame=  825 fps= 55 q=-0.0 size=  270592kB time=00:00:34.92 bitrate=63474.0kbits/s speed=2.34x    frame=  840 fps= 55 q=-0.0 size=  276224kB time=00:00:35.50 bitrate=63735.7kbits/s speed= 2.3x    frame=  860 fps= 54 q=-0.0 size=  283904kB time=00:00:36.36 bitrate=63960.0kbits/s speed=2.29x    frame=  874 fps= 53 q=-0.0 size=  289792kB time=00:00:37.03 bitrate=64099.5kbits/s speed=2.26x    frame=  892 fps= 53 q=-0.0 size=  296448kB time=00:00:37.70 bitrate=64400.8kbits/s speed=2.22x    frame=  913 fps= 52 q=-0.0 size=  304640kB time=00:00:38.54 bitrate=64745.2kbits/s speed=2.21x    frame=  937 fps= 52 q=-0.0 size=  314112kB time=00:00:39.54 bitrate=65072.7kbits/s speed=2.18x    frame=  959 fps= 51 q=-0.0 size=  323072kB time=00:00:40.54 bitrate=65280.5kbits/s speed=2.18x    frame=  980 fps= 51 q=-0.0 size=  330752kB time=00:00:41.37 bitrate=65482.2kbits/s speed=2.15x    frame= 1003 fps= 51 q=-0.0 size=  339712kB time=00:00:42.32 bitrate=65743.5kbits/s speed=2.14x    frame= 1021 fps= 50 q=-0.0 size=  346880kB time=00:00:43.07 bitrate=65972.7kbits/s speed=2.12x    frame= 1046 fps= 50 q=-0.0 size=  356352kB time=00:00:44.11 bitrate=66168.9kbits/s speed=2.12x    frame= 1065 fps= 50 q=-0.0 size=  363008kB time=00:00:44.90 bitrate=66219.9kbits/s speed= 2.1x    frame= 1091 fps= 50 q=-0.0 size=  372224kB time=00:00:46.04 bitrate=66223.2kbits/s speed=2.09x    frame= 1119 fps= 49 q=-0.0 size=  381440kB time=00:00:47.15 bitrate=66259.0kbits/s speed=2.08x    frame= 1146 fps= 49 q=-0.0 size=  390656kB time=00:00:48.25 bitrate=66325.0kbits/s speed=2.08x    frame= 1172 fps= 49 q=-0.0 size=  399616kB time=00:00:49.36 bitrate=66314.5kbits/s speed=2.07x    frame= 1198 fps= 49 q=-0.0 size=  408576kB time=00:00:50.45 bitrate=66334.8kbits/s speed=2.07x    frame= 1226 fps= 49 q=-0.0 size=  418048kB time=00:00:51.66 bitrate=66286.4kbits/s speed=2.08x    frame= 1247 fps= 49 q=-0.0 size=  425216kB time=00:00:52.56 bitrate=66261.6kbits/s speed=2.07x    frame= 1267 fps= 49 q=-0.0 size=  432128kB time=00:00:53.33 bitrate=66371.3kbits/s speed=2.05x    frame= 1286 fps= 48 q=-0.0 size=  438528kB time=00:00:54.21 bitrate=66258.1kbits/s speed=2.04x    frame= 1307 fps= 48 q=-0.0 size=  445696kB time=00:00:54.96 bitrate=66430.7kbits/s speed=2.02x    frame= 1328 fps= 48 q=-0.0 size=  452864kB time=00:00:55.96 bitrate=66294.8kbits/s speed=2.01x    frame= 1359 fps= 48 q=-0.0 size=  463616kB time=00:00:57.16 bitrate=66435.3kbits/s speed=2.02x    frame= 1370 fps= 47 q=-0.0 size=  467712kB time=00:00:57.58 bitrate=66535.8kbits/s speed=1.99x    frame= 1379 fps= 47 q=-0.0 size=  470528kB time=00:00:58.00 bitrate=66454.1kbits/s speed=1.96x    frame= 1384 fps= 46 q=-0.0 size=  472064kB time=00:00:58.28 bitrate=66352.3kbits/s speed=1.94x    frame= 1386 fps= 45 q=-0.0 size=  472832kB time=00:00:58.32 bitrate=66407.3kbits/s speed=1.88x    frame= 1406 fps= 44 q=-0.0 size=  480000kB time=00:00:59.21 bitrate=66409.4kbits/s speed=1.86x    frame= 1420 fps= 44 q=-0.0 size=  484864kB time=00:00:59.72 bitrate=66508.6kbits/s speed=1.85x    frame= 1425 fps= 43 q=-0.0 size=  486656kB time=00:00:59.95 bitrate=66495.8kbits/s speed=1.81x    frame= 1451 fps= 43 q=-0.0 size=  495872kB time=00:01:00.99 bitrate=66594.5kbits/s speed=1.81x    frame= 1454 fps= 41 q=-0.0 size=  496896kB time=00:01:01.16 bitrate=66554.6kbits/s speed=1.73x    frame= 1463 fps= 41 q=-0.0 size=  500224kB time=00:01:01.55 bitrate=66570.7kbits/s speed=1.72x    frame= 1485 fps= 41 q=-0.0 size=  508160kB time=00:01:02.50 bitrate=66596.9kbits/s speed=1.72x    frame= 1494 fps= 40 q=-0.0 size=  511232kB time=00:01:02.87 bitrate=66603.6kbits/s speed= 1.7x    frame= 1495 fps= 40 q=-0.0 size=  511488kB time=00:01:02.92 bitrate=66587.8kbits/s speed=1.67x    frame= 1504 fps= 39 q=-0.0 size=  514816kB time=00:01:03.29 bitrate=66627.7kbits/s speed=1.64x    frame= 1524 fps= 39 q=-0.0 size=  521984kB time=00:01:04.04 bitrate=66771.6kbits/s speed=1.63x    frame= 1532 fps= 38 q=-0.0 size=  525056kB time=00:01:04.41 bitrate=66777.1kbits/s speed= 1.6x    frame= 1533 fps= 38 q=-0.0 size=  525312kB time=00:01:04.50 bitrate=66713.5kbits/s speed=1.58x    frame= 1539 fps= 35 q=-0.0 size=  527616kB time=00:01:04.76 bitrate=66741.8kbits/s speed=1.49x    frame= 1564 fps= 35 q=-0.0 size=  536576kB time=00:01:05.71 bitrate=66891.9kbits/s speed=1.49x    frame= 1592 fps= 36 q=-0.0 size=  546560kB time=00:01:06.87 bitrate=66953.6kbits/s speed= 1.5x    frame= 1616 fps= 36 q=-0.0 size=  555264kB time=00:01:07.87 bitrate=67019.2kbits/s speed= 1.5x    frame= 1641 fps= 36 q=-0.0 size=  564224kB time=00:01:08.98 bitrate=67000.4kbits/s speed=1.51x    frame= 1665 fps= 36 q=-0.0 size=  572928kB time=00:01:10.00 bitrate=67041.1kbits/s speed=1.51x    frame= 1688 fps= 36 q=-0.0 size=  581632kB time=00:01:11.00 bitrate=67102.6kbits/s speed=1.52x    frame= 1717 fps= 36 q=-0.0 size=  591616kB time=00:01:12.07 bitrate=67243.0kbits/s speed=1.53x    frame= 1740 fps= 36 q=-0.0 size=  600064kB time=00:01:13.00 bitrate=67335.4kbits/s speed=1.53x    frame= 1763 fps= 37 q=-0.0 size=  608256kB time=00:01:14.00 bitrate=67333.8kbits/s speed=1.53x    frame= 1787 fps= 37 q=-0.0 size=  616960kB time=00:01:15.02 bitrate=67367.2kbits/s speed=1.54x    frame= 1813 fps= 37 q=-0.0 size=  625920kB time=00:01:16.11 bitrate=67365.6kbits/s speed=1.55x    frame= 1838 fps= 37 q=-0.0 size=  633344kB time=00:01:17.15 bitrate=67241.6kbits/s speed=1.55x    frame= 1853 fps= 37 q=-0.0 size=  637952kB time=00:01:17.78 bitrate=67184.9kbits/s speed=1.55x    frame= 1881 fps= 37 q=-0.0 size=  646400kB time=00:01:18.87 bitrate=67132.7kbits/s speed=1.55x    frame= 1909 fps= 37 q=-0.0 size=  654848kB time=00:01:20.08 bitrate=66984.7kbits/s speed=1.56x    frame= 1936 fps= 37 q=-0.0 size=  663040kB time=00:01:21.29 bitrate=66815.3kbits/s speed=1.57x    frame= 1965 fps= 38 q=-0.0 size=  672256kB time=00:01:22.45 bitrate=66790.2kbits/s speed=1.57x    frame= 1993 fps= 38 q=-0.0 size=  680448kB time=00:01:23.54 bitrate=66721.0kbits/s speed=1.58x    frame= 2016 fps= 38 q=-0.0 size=  687616kB time=00:01:24.54 bitrate=66627.6kbits/s speed=1.58x    frame= 2033 fps= 37 q=-0.0 size=  693248kB time=00:01:25.28 bitrate=66588.1kbits/s speed=1.56x    frame= 2037 fps= 37 q=-0.0 size=  694528kB time=00:01:25.47 bitrate=66566.0kbits/s speed=1.55x    frame= 2047 fps= 37 q=-0.0 size=  697600kB time=00:01:25.89 bitrate=66535.1kbits/s speed=1.54x    frame= 2049 fps= 36 q=-0.0 size=  698368kB time=00:01:26.00 bitrate=66518.4kbits/s speed=1.52x    frame= 2053 fps= 36 q=-0.0 size=  699392kB time=00:01:26.16 bitrate=66490.3kbits/s speed=1.51x    frame= 2057 fps= 36 q=-0.0 size=  700672kB time=00:01:26.28 bitrate=66522.4kbits/s speed=1.49x    frame= 2057 fps= 35 q=-0.0 size=  700672kB time=00:01:26.33 bitrate=66486.6kbits/s speed=1.47x    frame= 2062 fps= 35 q=-0.0 size=  702208kB time=00:01:26.49 bitrate=66507.1kbits/s speed=1.46x    frame= 2067 fps= 34 q=-0.0 size=  704000kB time=00:01:26.72 bitrate=66498.3kbits/s speed=1.43x    frame= 2069 fps= 34 q=-0.0 size=  704512kB time=00:01:26.84 bitrate=66457.7kbits/s speed=1.42x    frame= 2073 fps= 33 q=-0.0 size=  706048kB time=00:01:26.91 bitrate=66549.2kbits/s speed= 1.4x    frame= 2093 fps= 33 q=-0.0 size=  712192kB time=00:01:27.84 bitrate=66418.5kbits/s speed= 1.4x    frame= 2110 fps= 33 q=-0.0 size=  717568kB time=00:01:28.51 bitrate=66410.8kbits/s speed=1.39x    frame= 2140 fps= 32 q=-0.0 size=  727040kB time=00:01:29.74 bitrate=66364.7kbits/s speed=1.36x    frame= 2154 fps= 32 q=-0.0 size=  731904kB time=00:01:30.30 bitrate=66396.4kbits/s speed=1.36x    frame= 2164 fps= 28 q=-0.0 size=  734976kB time=00:01:30.72 bitrate=66367.9kbits/s speed=1.19x    frame= 2164 fps= 28 q=-0.0 size=  734976kB time=00:01:30.72 bitrate=66367.9kbits/s speed=1.18x    [out#0/mov @ 0x63d26e5fbb00] video:731445kB audio:7816kB subtitle:0kB other streams:0kB global headers:0kB muxing overhead: 0.005034%
frame= 2177 fps= 28 q=-0.0 Lsize=  739298kB time=00:01:30.72 bitrate=66758.2kbits/s speed=1.18x    
